<svg xmlns="http://www.w3.org/2000/svg" xmlns:xlink="http://www.w3.org/1999/xlink" zoomAndPan="magnify" preserveAspectRatio="xMidYMid meet" version="1.2" viewBox="70.21 166.44 272.8 69.14"><g id="a07c8a04a9"><path style=" stroke:none;fill-rule:nonzero;fill:#ff3131;fill-opacity:1;" d="M 256.746094 181.746094 L 259.546875 182.304688 C 259.671875 186.429688 259.492188 190.074219 258.425781 194.070312 L 259.492188 193.492188 C 263.210938 191.554688 266.535156 190.144531 270.78125 190.007812 C 273.5 190.175781 275.820312 190.71875 278.261719 191.945312 L 279.714844 192.386719 C 281.097656 191.957031 281.097656 191.957031 282.410156 191.128906 C 285.542969 189.421875 288.148438 188.4375 291.792969 188.5 L 292.886719 188.53125 C 296.273438 188.367188 300.761719 187.828125 303.746094 186.203125 C 305.144531 185.558594 306.140625 185.523438 307.671875 185.527344 L 309.328125 185.523438 L 311.101562 185.535156 L 312.929688 185.535156 C 314.207031 185.539062 315.480469 185.542969 316.753906 185.550781 C 318.707031 185.558594 320.664062 185.558594 322.621094 185.558594 L 326.332031 185.574219 L 328.113281 185.574219 L 329.753906 185.585938 L 331.207031 185.589844 C 332.367188 185.664062 332.367188 185.664062 333.484375 186.226562 L 333.484375 187.347656 L 336.289062 187.347656 C 336.636719 188.675781 336.636719 188.675781 336.847656 190.144531 C 335.730469 191.265625 335.730469 191.265625 334.535156 191.617188 L 333.484375 191.824219 C 338.207031 192.792969 338.207031 192.792969 343.011719 192.945312 C 341.078125 195.621094 338.984375 197.238281 336.007812 198.65625 C 332.746094 199.714844 329.597656 199.738281 326.203125 199.667969 L 326.203125 200.789062 L 335.730469 201.351562 L 335.167969 203.03125 C 335.144531 204.148438 335.144531 205.269531 335.167969 206.390625 C 330.808594 207.433594 326.773438 208.304688 322.285156 208.074219 L 321.164062 211.992188 L 322.566406 211.644531 C 324.535156 211.433594 325.835938 211.738281 327.71875 212.285156 C 330.171875 212.796875 332.675781 212.632812 335.167969 212.550781 C 334.28125 214.324219 333.253906 215.671875 331.804688 217.035156 C 326.539062 219.957031 321.125 220.089844 315.234375 220.074219 C 312.769531 220.023438 311.015625 219.960938 308.839844 218.714844 L 308.488281 219.90625 C 307.632812 221.695312 306.621094 222.863281 305.273438 224.292969 L 304.359375 224.875 C 303.128906 224.6875 303.128906 224.6875 302.117188 224.316406 C 301.582031 222.226562 301.644531 220.804688 302.117188 218.714844 L 300.925781 218.652344 C 297.546875 218.417969 294.496094 218.085938 291.472656 216.472656 C 289.222656 214.792969 287.265625 212.882812 285.3125 210.871094 C 283.96875 213.757812 283.117188 216.597656 282.371094 219.6875 L 281.953125 220.957031 L 280.832031 221.515625 L 280.273438 220.394531 L 278.589844 220.957031 C 277.898438 222.125 277.898438 222.125 277.367188 223.511719 L 276.78125 224.914062 L 276.351562 225.996094 C 275.207031 224.277344 274.945312 223.304688 274.601562 221.304688 L 274.316406 219.71875 C 274.121094 218.222656 273.992188 216.855469 274.109375 215.355469 C 275.230469 214.339844 275.230469 214.339844 276.351562 213.671875 L 276 215.179688 C 275.660156 217.019531 275.660156 217.019531 276.316406 218.644531 C 276.511719 219.039062 276.710938 219.429688 276.910156 219.832031 L 277.605469 219.101562 L 278.519531 218.152344 L 279.425781 217.210938 L 280.273438 216.472656 L 281.394531 216.472656 L 281.558594 215.507812 C 282.15625 212.425781 283.0625 210.15625 284.753906 207.511719 L 285.871094 207.511719 L 285.871094 208.632812 L 287.554688 209.191406 L 287.554688 210.3125 L 289.234375 210.871094 L 290.390625 212.484375 C 291.359375 213.726562 291.988281 214.210938 293.460938 214.828125 C 294.847656 215.234375 296.226562 215.601562 297.636719 215.914062 C 297.460938 214.550781 297.460938 214.550781 297.078125 213.113281 C 296.152344 212.355469 295.21875 211.609375 294.277344 210.871094 C 293.539062 209.332031 293.539062 209.332031 293.15625 208.074219 C 295.507812 205.890625 297.449219 204.226562 300.4375 203.03125 C 301.550781 201.890625 301.550781 201.890625 302.117188 200.230469 C 302.394531 198.488281 302.46875 196.921875 302.117188 195.1875 C 301.007812 194.0625 301.007812 194.0625 299.316406 193.507812 L 298.429688 192.917969 C 296.476562 191.679688 295.011719 191.277344 292.679688 191.125 C 290.59375 191.101562 288.515625 191.167969 286.433594 191.265625 L 286.433594 192.386719 L 281.394531 194.070312 L 281.953125 195.1875 L 283.246094 195.066406 C 286.753906 194.75 290.195312 194.570312 293.71875 194.628906 L 293.71875 196.308594 L 294.625 197.359375 L 295.398438 198.546875 C 295.21875 199.914062 295.21875 199.914062 294.277344 201.351562 C 292.875 202.472656 291.441406 203.421875 289.792969 204.148438 L 287.554688 204.148438 C 287.859375 202.257812 288.144531 201.304688 289.234375 199.667969 L 289.234375 197.988281 C 285.976562 198.308594 285.976562 198.308594 283.074219 199.667969 C 282.640625 200.90625 282.640625 200.90625 282.511719 202.328125 C 282.070312 204.945312 281.425781 206.542969 279.714844 208.632812 L 278.949219 209.625 C 277.492188 211.332031 276.175781 212.382812 274.113281 213.296875 C 270.425781 214.527344 266.792969 215.425781 262.90625 214.792969 C 260.097656 213.984375 257.953125 212.789062 255.871094 210.734375 L 254.503906 209.191406 L 253.847656 210.828125 L 252.964844 212.972656 L 252.535156 214.050781 C 251.636719 216.210938 250.769531 217.828125 248.902344 219.273438 C 246.875 219.449219 246.875 219.449219 244.984375 219.273438 L 243.859375 218.714844 C 243.472656 217.699219 243.125 216.671875 242.8125 215.632812 C 241.644531 211.980469 240.394531 208.476562 238.261719 205.269531 C 238.085938 205.714844 237.90625 206.164062 237.726562 206.621094 C 236.457031 209.753906 235.25 212.644531 233.21875 215.355469 L 231.539062 214.234375 L 232.339844 212.714844 C 234.191406 209.136719 235.84375 205.734375 236.800781 201.792969 L 237.136719 200.789062 L 238.261719 200.230469 C 239.738281 203.121094 241.144531 206.042969 242.53125 208.980469 L 243.042969 210.058594 C 244.023438 212.136719 244.855469 214.277344 245.542969 216.472656 L 246.664062 215.914062 L 246.664062 217.035156 L 249.460938 214.234375 C 252.195312 211.261719 252.835938 207.019531 253.699219 203.207031 L 254.085938 201.414062 C 254.503906 199.671875 255.03125 198 255.625 196.308594 L 256.746094 196.308594 L 257.304688 185.664062 L 255.625 189.027344 L 254.503906 189.585938 L 253.945312 188.464844 C 253.214844 190.144531 252.496094 191.824219 251.773438 193.507812 L 251.15625 194.929688 C 249.933594 197.792969 249.011719 200.550781 248.34375 203.589844 L 247.222656 203.589844 L 246.664062 205.269531 L 245.890625 203.871094 L 244.984375 202.46875 L 243.859375 202.46875 C 243.644531 201.167969 243.457031 199.859375 243.300781 198.546875 L 243.859375 197.429688 L 242.882812 196.65625 C 241.324219 194.84375 240.664062 193.019531 239.847656 190.789062 C 239.484375 189.613281 239.484375 189.613281 238.820312 189.027344 C 237.714844 189.0625 237.714844 189.0625 236.578125 189.585938 C 232.523438 195.046875 230.855469 202.824219 228.738281 209.191406 L 227.617188 209.191406 L 227.058594 213.113281 L 225.9375 213.113281 C 225.554688 211.710938 225.554688 211.710938 225.378906 209.753906 C 225.8125 208.175781 226.410156 206.777344 227.058594 205.269531 L 228.175781 205.269531 L 228.445312 204.300781 C 232.003906 191.9375 232.003906 191.9375 235.457031 187.347656 C 236.929688 186.542969 236.929688 186.542969 238.261719 186.226562 L 239.941406 185.105469 C 240.742188 185.792969 240.742188 185.792969 241.621094 186.785156 C 242.011719 187.933594 242.011719 187.933594 242.25 189.203125 L 242.515625 190.539062 C 243.074219 193.699219 243.074219 193.699219 243.300781 195.1875 L 245.542969 195.75 L 246.664062 200.230469 L 247.421875 198.179688 L 248.445312 195.46875 L 248.945312 194.125 C 250.078125 191.144531 251.332031 188.144531 253.386719 185.664062 L 255.066406 185.105469 C 256.019531 183.425781 256.019531 183.425781 256.746094 181.746094 M 306.039062 187.347656 C 305.125 187.730469 304.21875 188.136719 303.320312 188.558594 C 300.96875 189.472656 298.441406 189.765625 295.957031 190.144531 L 295.957031 190.707031 L 311.082031 191.824219 L 309.402344 196.867188 L 308.949219 198.304688 C 308.328125 200.273438 307.65625 202.09375 306.671875 203.90625 C 305.488281 206.179688 304.691406 208.542969 303.90625 210.980469 L 303.511719 212.148438 C 302.988281 213.824219 302.65625 215.164062 302.847656 216.925781 C 303.15625 217.894531 303.472656 218.863281 303.796875 219.832031 C 303.992188 220.578125 304.179688 221.328125 304.359375 222.078125 L 304.917969 220.957031 L 306.597656 220.394531 C 309.257812 216.28125 310.507812 211.0625 311.96875 206.441406 L 312.453125 204.9375 L 312.878906 203.578125 C 313.320312 202.46875 313.320312 202.46875 314.441406 201.351562 L 315.058594 199.214844 C 315.917969 196.441406 316.765625 193.859375 318.921875 191.824219 C 322.730469 190.320312 326.960938 190.304688 331.015625 190.277344 C 332.515625 190.242188 332.515625 190.242188 334.046875 189.027344 C 330.957031 187.980469 328.289062 187.761719 325.042969 187.816406 L 323.605469 187.824219 C 322.101562 187.835938 320.601562 187.851562 319.097656 187.871094 C 317.589844 187.886719 316.078125 187.898438 314.570312 187.910156 C 313.632812 187.914062 312.699219 187.929688 311.761719 187.941406 C 308.5 187.96875 308.5 187.96875 307.128906 187.574219 Z M 319.257812 193.457031 C 317.785156 194.472656 317.785156 194.472656 317.257812 195.710938 C 316.769531 197.074219 316.382812 198.441406 316.015625 199.84375 C 315.753906 200.789062 315.492188 201.730469 315.222656 202.671875 L 314.839844 204.035156 C 314.441406 205.269531 314.441406 205.269531 313.539062 207.054688 C 312.648438 208.859375 312.40625 210.382812 312.164062 212.378906 C 311.761719 215.734375 311.761719 215.734375 310.519531 217.59375 C 314.183594 218.75 318.796875 218.511719 322.574219 217.941406 C 323.609375 217.683594 324.628906 217.359375 325.644531 217.035156 C 326.390625 216.820312 327.136719 216.609375 327.886719 216.40625 L 329.566406 215.914062 C 328.722656 215.007812 328.722656 215.007812 327.324219 214.234375 C 324.5625 213.664062 321.738281 213.597656 318.921875 213.671875 L 319.308594 212.507812 L 319.800781 210.980469 L 320.289062 209.460938 L 320.601562 208.074219 L 320.042969 206.390625 L 321.742188 206.308594 L 324 206.183594 L 326.226562 206.0625 C 328.433594 205.832031 330.261719 205.382812 332.367188 204.710938 C 331.421875 203.832031 331.421875 203.832031 330.125 203.03125 C 328.554688 202.710938 328.554688 202.710938 326.90625 202.644531 C 326.078125 202.589844 326.078125 202.589844 325.230469 202.53125 L 323.964844 202.46875 L 325.644531 197.988281 L 327.527344 197.785156 L 329.984375 197.496094 L 331.222656 197.363281 C 333.300781 197.121094 335.058594 196.867188 336.847656 195.75 C 336.105469 195.363281 335.359375 194.988281 334.605469 194.628906 L 333.457031 194.054688 C 331.15625 193.292969 328.929688 193.179688 326.523438 193.050781 L 325.105469 192.941406 C 322.992188 192.824219 321.320312 192.90625 319.257812 193.457031 M 303.796875 193.507812 L 303.859375 194.714844 C 303.996094 199.652344 303.996094 199.652344 303.136719 201.839844 C 301.632812 204.425781 299.949219 205.972656 297.460938 207.617188 L 295.957031 208.632812 L 295.957031 209.753906 L 297.289062 211.082031 C 298.546875 212.339844 299.222656 213.179688 299.878906 214.792969 L 301.558594 214.792969 L 301.882812 213.855469 C 305.460938 203.507812 305.460938 203.507812 307.285156 199.101562 C 307.929688 197.453125 308.394531 195.78125 308.839844 194.070312 L 308.28125 193.507812 C 306.785156 193.425781 305.300781 193.484375 303.796875 193.507812 M 262.90625 194.628906 C 263.15625 196.355469 263.460938 198.011719 264.027344 199.667969 C 265.390625 201.109375 265.390625 201.109375 266.828125 201.910156 L 266.828125 200.230469 L 266.269531 199.667969 C 266.113281 196.515625 266.113281 196.515625 266.269531 195.1875 L 267.390625 193.507812 C 265.773438 193.507812 264.421875 194.101562 262.90625 194.628906 M 276.910156 196.867188 C 275.984375 197.546875 275.984375 197.546875 275.230469 198.546875 C 274.867188 199.667969 274.867188 199.667969 274.707031 200.894531 C 273.914062 204.90625 271.949219 208.117188 269.628906 211.433594 C 271.394531 211.222656 272.542969 210.804688 274.109375 209.929688 C 275.90625 208.542969 277.4375 207.226562 278.589844 205.269531 C 279.253906 203.59375 279.652344 202.035156 279.714844 200.230469 C 279.039062 198.273438 279.039062 198.273438 278.03125 196.867188 Z M 290.914062 197.429688 L 290.914062 201.351562 C 292.035156 200.90625 292.035156 200.90625 293.15625 200.230469 L 293.71875 198.546875 L 292.59375 197.429688 Z M 244.421875 200.230469 L 244.984375 201.351562 Z M 256.746094 203.03125 L 257.304688 207.511719 L 260.105469 208.074219 L 260.105469 206.390625 C 259.285156 205.148438 258.3125 204.136719 257.304688 203.03125 Z M 266.269531 205.828125 L 265.710938 206.949219 L 267.390625 206.949219 L 267.390625 205.828125 Z M 267.390625 206.949219 L 267.949219 208.074219 Z M 263.464844 208.632812 L 261.785156 210.3125 L 262.347656 211.433594 C 264.472656 212.28125 266.824219 212.03125 269.070312 211.992188 L 269.070312 210.871094 Z M 263.464844 208.632812 "/><path style=" stroke:none;fill-rule:nonzero;fill:#ffffff;fill-opacity:1;" d="M 153.113281 186.785156 L 153.675781 186.785156 C 153.789062 189.875 153.464844 192.550781 152.800781 195.570312 C 152.496094 196.945312 152.496094 196.945312 152.59375 198.6875 C 152.546875 200.65625 151.839844 201.902344 150.875 203.589844 C 153.125 203.371094 155 202.902344 157.035156 201.910156 C 159.828125 199.347656 161.808594 195.917969 163.839844 192.761719 C 164.878906 191.265625 164.878906 191.265625 166.140625 190.496094 L 167.117188 190.144531 L 167.679688 191.265625 L 169.007812 190.917969 L 170.480469 190.707031 L 171.601562 191.824219 C 172.527344 192.222656 173.460938 192.597656 174.398438 192.945312 C 174.804688 200.820312 174.320312 208.699219 171.054688 216.011719 C 170.480469 217.035156 170.480469 217.035156 169.5 217.734375 C 167.917969 218.261719 166.535156 218.230469 164.878906 218.152344 L 164.320312 216.472656 L 163.199219 217.035156 C 163.46875 213.195312 163.960938 209.566406 164.878906 205.828125 C 164.0625 205.863281 163.242188 205.914062 162.429688 205.972656 L 161.050781 206.050781 L 159.835938 206.390625 C 159.230469 207.386719 159.230469 207.386719 158.714844 208.632812 C 157.910156 209.597656 157.085938 210.542969 156.230469 211.464844 L 154.902344 212.921875 L 153.675781 214.234375 L 152.757812 215.226562 C 151.996094 215.914062 151.996094 215.914062 150.664062 216.230469 L 149.195312 216.472656 C 148.253906 216.828125 147.316406 217.199219 146.390625 217.59375 L 147.441406 215.84375 C 148.199219 214.535156 148.703125 213.453125 149.160156 211.992188 C 149.941406 209.785156 151.140625 208.253906 152.554688 206.390625 L 149.753906 206.390625 L 149.203125 207.78125 L 148.460938 209.609375 L 147.730469 211.421875 C 147.039062 212.925781 146.324219 214.085938 145.273438 215.355469 L 144.710938 214.792969 L 143.03125 217.59375 C 141.773438 217.347656 141.773438 217.347656 140.234375 216.472656 C 139.53125 215.246094 139.019531 214 138.5 212.691406 C 137.910156 211.238281 137.125 209.964844 136.3125 208.632812 L 135.191406 205.828125 L 134.277344 204.324219 L 133.511719 203.03125 L 133.511719 201.910156 L 132.386719 201.910156 L 132.25 203.277344 C 131.390625 207.347656 129.398438 211.53125 126.789062 214.792969 L 125.667969 214.792969 C 124.90625 215.902344 124.15625 217.023438 123.425781 218.152344 L 122.867188 218.152344 C 122.445312 216.496094 122.1875 215.359375 122.308594 213.671875 C 123.03125 212.269531 123.890625 211.066406 124.828125 209.796875 C 125.902344 208.304688 126.394531 207.070312 126.789062 205.269531 C 126.847656 204.292969 126.910156 203.308594 126.960938 202.328125 C 127.265625 198.257812 129.042969 195.167969 131.269531 191.824219 C 133.019531 191.160156 133.019531 191.160156 134.632812 190.707031 C 135.101562 191.800781 135.566406 192.898438 136.03125 193.996094 L 136.816406 195.847656 C 137.429688 197.429688 137.429688 197.429688 137.429688 198.546875 L 139.671875 199.667969 L 139.109375 201.351562 L 139.109375 203.589844 L 140.792969 203.03125 L 141.914062 205.828125 C 143.183594 204.558594 143.421875 203.746094 143.980469 202.046875 C 145.359375 198.085938 147.265625 194.425781 149.195312 190.707031 L 150.316406 191.824219 Z M 167.117188 199.109375 C 165.90625 200.136719 165.90625 200.136719 164.878906 201.351562 L 164.878906 202.46875 L 167.679688 201.910156 L 168.242188 199.109375 Z M 173.28125 199.667969 L 173.839844 201.351562 Z M 139.671875 204.148438 L 140.792969 206.390625 L 140.234375 204.148438 Z M 311.324219 185.480469 L 313.140625 185.484375 C 314.402344 185.488281 315.660156 185.496094 316.921875 185.507812 C 318.859375 185.523438 320.792969 185.53125 322.730469 185.535156 L 326.410156 185.550781 L 328.171875 185.558594 L 329.789062 185.574219 L 331.222656 185.585938 C 332.367188 185.664062 332.367188 185.664062 333.484375 186.226562 L 333.484375 187.347656 L 336.289062 187.347656 C 336.636719 188.675781 336.636719 188.675781 336.847656 190.144531 C 335.730469 191.265625 335.730469 191.265625 334.535156 191.617188 L 333.484375 191.824219 C 338.207031 192.792969 338.207031 192.792969 343.011719 192.945312 C 341.078125 195.621094 338.984375 197.238281 336.007812 198.65625 C 332.746094 199.714844 329.597656 199.738281 326.203125 199.667969 L 326.203125 200.789062 L 335.730469 201.351562 L 335.167969 203.03125 C 335.144531 204.148438 335.144531 205.269531 335.167969 206.390625 C 330.808594 207.433594 326.773438 208.304688 322.285156 208.074219 L 321.164062 211.992188 L 322.566406 211.644531 C 324.535156 211.433594 325.835938 211.738281 327.71875 212.285156 C 330.171875 212.796875 332.675781 212.632812 335.167969 212.550781 C 334.28125 214.324219 333.253906 215.671875 331.804688 217.035156 C 326.539062 219.957031 321.125 220.089844 315.234375 220.074219 C 312.769531 220.023438 311.015625 219.960938 308.839844 218.714844 L 308.488281 219.90625 C 307.632812 221.695312 306.621094 222.863281 305.273438 224.292969 L 304.359375 224.875 C 303.128906 224.6875 303.128906 224.6875 302.117188 224.316406 C 301.582031 222.226562 301.644531 220.804688 302.117188 218.714844 L 300.925781 218.652344 C 297.546875 218.417969 294.496094 218.085938 291.472656 216.472656 C 289.222656 214.792969 287.265625 212.882812 285.3125 210.871094 C 283.96875 213.757812 283.117188 216.597656 282.371094 219.6875 L 281.953125 220.957031 L 280.832031 221.515625 L 280.273438 220.394531 L 278.589844 220.957031 C 277.898438 222.125 277.898438 222.125 277.367188 223.511719 L 276.78125 224.914062 L 276.351562 225.996094 C 275.207031 224.277344 274.945312 223.304688 274.601562 221.304688 L 274.316406 219.71875 C 274.121094 218.222656 273.992188 216.855469 274.109375 215.355469 C 275.230469 214.339844 275.230469 214.339844 276.351562 213.671875 L 276 215.179688 C 275.660156 217.019531 275.660156 217.019531 276.316406 218.644531 L 276.910156 219.832031 L 277.605469 219.101562 L 278.519531 218.152344 L 279.425781 217.210938 L 280.273438 216.472656 L 281.394531 216.472656 L 281.558594 215.507812 C 282.15625 212.425781 283.0625 210.15625 284.753906 207.511719 L 285.871094 207.511719 L 285.871094 208.632812 L 287.554688 209.191406 L 287.554688 210.3125 L 289.234375 210.871094 L 290.390625 212.484375 C 291.359375 213.726562 291.988281 214.210938 293.460938 214.828125 C 294.847656 215.234375 296.226562 215.601562 297.636719 215.914062 C 297.460938 214.550781 297.460938 214.550781 297.078125 213.113281 C 296.152344 212.355469 295.21875 211.609375 294.277344 210.871094 C 293.539062 209.332031 293.539062 209.332031 293.15625 208.074219 C 295.507812 205.890625 297.449219 204.226562 300.4375 203.03125 C 301.550781 201.890625 301.550781 201.890625 302.117188 200.230469 C 302.394531 198.488281 302.46875 196.921875 302.117188 195.1875 C 301.007812 194.0625 301.007812 194.0625 299.316406 193.507812 L 298.429688 192.917969 C 296.476562 191.679688 295.011719 191.277344 292.679688 191.125 C 290.59375 191.101562 288.515625 191.167969 286.433594 191.265625 L 286.433594 192.386719 C 285.640625 192.683594 284.851562 192.976562 284.054688 193.261719 L 282.714844 193.753906 C 281.394531 194.070312 281.394531 194.070312 280.105469 193.839844 L 279.152344 193.507812 C 281.199219 191.234375 283.105469 190.445312 285.957031 189.480469 C 287.71875 188.980469 289.367188 188.722656 291.183594 188.578125 C 292.984375 188.433594 294.765625 188.210938 296.550781 187.976562 L 298.460938 187.734375 C 300.480469 187.410156 300.480469 187.410156 302.402344 186.492188 C 305.351562 185.367188 308.199219 185.445312 311.324219 185.480469 M 306.039062 187.347656 C 305.125 187.730469 304.21875 188.136719 303.320312 188.558594 C 300.96875 189.472656 298.441406 189.765625 295.957031 190.144531 L 295.957031 190.707031 L 311.082031 191.824219 L 309.402344 196.867188 L 308.949219 198.304688 C 308.328125 200.273438 307.65625 202.09375 306.671875 203.90625 C 305.488281 206.179688 304.691406 208.542969 303.90625 210.980469 L 303.511719 212.148438 C 302.988281 213.824219 302.65625 215.164062 302.847656 216.925781 C 303.15625 217.894531 303.472656 218.863281 303.796875 219.832031 C 303.992188 220.578125 304.179688 221.328125 304.359375 222.078125 L 304.917969 220.957031 L 306.597656 220.394531 C 309.257812 216.28125 310.507812 211.0625 311.96875 206.441406 L 312.453125 204.9375 L 312.878906 203.578125 C 313.320312 202.46875 313.320312 202.46875 314.441406 201.351562 L 315.058594 199.214844 C 315.917969 196.441406 316.765625 193.859375 318.921875 191.824219 C 322.730469 190.320312 326.960938 190.304688 331.015625 190.277344 C 332.515625 190.242188 332.515625 190.242188 334.046875 189.027344 C 330.957031 187.980469 328.289062 187.761719 325.042969 187.816406 L 323.605469 187.824219 C 322.101562 187.835938 320.601562 187.851562 319.097656 187.871094 C 317.589844 187.886719 316.078125 187.898438 314.570312 187.910156 C 313.632812 187.914062 312.699219 187.929688 311.761719 187.941406 C 308.5 187.96875 308.5 187.96875 307.128906 187.574219 Z M 319.257812 193.457031 C 317.785156 194.472656 317.785156 194.472656 317.257812 195.710938 C 316.769531 197.074219 316.382812 198.441406 316.015625 199.84375 C 315.753906 200.789062 315.492188 201.730469 315.222656 202.671875 L 314.839844 204.035156 C 314.441406 205.269531 314.441406 205.269531 313.539062 207.054688 C 312.648438 208.859375 312.40625 210.382812 312.164062 212.378906 C 311.761719 215.734375 311.761719 215.734375 310.519531 217.59375 C 314.183594 218.75 318.796875 218.511719 322.574219 217.941406 C 323.609375 217.683594 324.628906 217.359375 325.644531 217.035156 C 326.390625 216.820312 327.136719 216.609375 327.886719 216.40625 L 329.566406 215.914062 C 328.722656 215.007812 328.722656 215.007812 327.324219 214.234375 C 324.5625 213.664062 321.738281 213.597656 318.921875 213.671875 L 319.308594 212.507812 L 319.800781 210.980469 L 320.289062 209.460938 L 320.601562 208.074219 L 320.042969 206.390625 L 321.742188 206.308594 L 324 206.183594 L 326.226562 206.0625 C 328.433594 205.832031 330.261719 205.382812 332.367188 204.710938 C 331.421875 203.832031 331.421875 203.832031 330.125 203.03125 C 328.554688 202.710938 328.554688 202.710938 326.90625 202.644531 C 326.078125 202.589844 326.078125 202.589844 325.230469 202.53125 L 323.964844 202.46875 L 325.644531 197.988281 L 327.527344 197.785156 L 329.984375 197.496094 L 331.222656 197.363281 C 333.300781 197.121094 335.058594 196.867188 336.847656 195.75 C 336.105469 195.363281 335.359375 194.988281 334.605469 194.628906 L 333.457031 194.054688 C 331.15625 193.292969 328.929688 193.179688 326.523438 193.050781 L 325.105469 192.941406 C 322.992188 192.824219 321.320312 192.90625 319.257812 193.457031 M 303.796875 193.507812 L 303.859375 194.714844 C 303.996094 199.652344 303.996094 199.652344 303.136719 201.839844 C 301.632812 204.425781 299.949219 205.972656 297.460938 207.617188 L 295.957031 208.632812 L 295.957031 209.753906 L 297.289062 211.082031 C 298.546875 212.339844 299.222656 213.179688 299.878906 214.792969 L 301.558594 214.792969 L 301.882812 213.855469 C 305.460938 203.507812 305.460938 203.507812 307.285156 199.101562 C 307.929688 197.453125 308.394531 195.78125 308.839844 194.070312 L 308.28125 193.507812 C 306.785156 193.425781 305.300781 193.484375 303.796875 193.507812 M 101.582031 169.980469 C 103.214844 170.164062 104.246094 170.445312 105.605469 171.378906 C 107.046875 173.367188 107.40625 175.433594 107.742188 177.820312 C 107.867188 180.355469 107.851562 182.882812 107.8125 185.421875 L 107.796875 187.457031 C 107.785156 189.097656 107.765625 190.742188 107.742188 192.386719 L 109.050781 192.367188 L 110.753906 192.351562 L 112.445312 192.332031 C 113.90625 192.386719 113.90625 192.386719 115.023438 192.945312 L 115.191406 191.710938 C 115.8125 187.527344 116.605469 183.363281 118.382812 179.503906 C 119.578125 178.191406 119.578125 178.191406 120.628906 177.261719 C 123.71875 178.171875 126.53125 179.0625 129.027344 181.183594 C 129.589844 182.652344 129.589844 182.652344 129.589844 183.984375 L 128.46875 185.105469 C 127.171875 185.335938 127.171875 185.335938 125.667969 185.457031 L 124.164062 185.582031 C 123.359375 185.636719 122.550781 185.664062 121.746094 185.664062 L 122.867188 186.226562 C 122.226562 188.300781 121.449219 190.199219 120.484375 192.144531 C 119.886719 193.414062 119.886719 193.414062 119.507812 194.628906 C 119.746094 196.136719 119.746094 196.136719 120.628906 197.429688 C 121.839844 199.898438 122.59375 201.902344 122.464844 204.6875 C 122.058594 207.621094 120.96875 210.050781 119.191406 212.414062 C 117.433594 214.308594 115.539062 215.296875 113.109375 216.136719 C 111.242188 216.570312 109.71875 216.621094 107.835938 216.292969 C 104.980469 215.402344 102.828125 213.855469 100.808594 211.675781 C 99.644531 209.929688 98.855469 208.640625 98.574219 206.539062 C 98.472656 202.054688 98.472656 202.054688 99.371094 199.992188 C 100.0625 198.90625 100.808594 197.898438 101.582031 196.867188 C 102.261719 195.882812 102.261719 195.882812 102.699219 194.628906 C 102.652344 193.050781 102.652344 193.050781 102.320312 191.335938 L 102.003906 189.382812 L 101.648438 187.347656 C 99.582031 175.234375 99.582031 175.234375 101.03125 171.191406 Z M 115.585938 201.910156 L 115.585938 203.589844 L 112.785156 204.148438 C 113.195312 205.25 113.195312 205.25 113.90625 206.390625 C 115.039062 207.027344 115.039062 207.027344 116.144531 207.511719 C 116.707031 206.882812 117.269531 206.253906 117.824219 205.621094 L 118.769531 204.558594 L 119.507812 203.589844 L 119.507812 202.46875 L 116.144531 203.03125 Z M 102.140625 202.46875 C 102.246094 203.839844 102.246094 203.839844 102.699219 205.269531 C 103.683594 206.109375 103.683594 206.109375 104.941406 206.390625 C 106.234375 206.199219 107.136719 205.855469 108.304688 205.269531 L 108.304688 204.148438 C 107.59375 203.867188 106.882812 203.585938 106.167969 203.308594 L 104.964844 202.839844 C 103.753906 202.386719 103.753906 202.386719 102.140625 202.46875 M 108.304688 208.632812 C 108.496094 210.015625 108.496094 210.015625 108.863281 211.433594 L 109.984375 211.992188 L 112.226562 210.3125 L 111.664062 208.632812 Z M 108.304688 208.632812 "/><path style=" stroke:none;fill-rule:nonzero;fill:#ffffff;fill-opacity:1;" d="M 172.605469 166.464844 C 174.457031 166.695312 175.660156 167.25 177.203125 168.300781 C 178.539062 169.660156 179.707031 171.066406 180.5625 172.78125 C 180.714844 174.378906 180.8125 175.976562 180.910156 177.578125 L 181.121094 178.941406 L 182.246094 179.503906 L 184.074219 179.382812 C 186.164062 179.503906 186.164062 179.503906 187.839844 180.585938 L 189.386719 181.988281 C 191.476562 183.917969 191.476562 183.917969 194.007812 185.105469 C 195.042969 184.765625 195.042969 184.765625 196.109375 184.230469 C 197.292969 183.75 197.292969 183.75 198.488281 183.425781 C 200.660156 183.773438 200.660156 183.773438 202.410156 184.542969 C 203.53125 186.226562 203.53125 186.226562 203.636719 187.367188 L 203.53125 190.707031 L 204.089844 190.144531 C 204.113281 189.027344 204.113281 187.90625 204.089844 186.785156 C 206.890625 187.625 209.382812 188.8125 211.96875 190.144531 C 214.351562 191.371094 216.703125 192.566406 219.214844 193.507812 L 220.894531 191.265625 L 223.132812 191.824219 C 223.519531 193.679688 223.519531 193.679688 223.695312 195.75 C 223.03125 196.796875 223.03125 196.796875 222.015625 197.429688 C 221.085938 197.847656 221.085938 197.847656 219.773438 197.988281 C 218.394531 197.507812 217.042969 196.960938 215.714844 196.34375 L 214.609375 195.847656 C 213.714844 195.445312 212.824219 195.039062 211.933594 194.628906 L 212.492188 195.1875 L 213.050781 196.867188 L 214.910156 197.042969 C 216.976562 197.429688 216.976562 197.429688 217.933594 198.132812 C 218.65625 199.109375 218.65625 199.109375 218.835938 200.335938 L 218.792969 201.664062 C 218.785156 202.105469 218.777344 202.542969 218.769531 202.996094 C 218.65625 204.148438 218.65625 204.148438 218.09375 205.269531 L 219.285156 205.621094 C 221.390625 206.628906 222.855469 207.878906 224.257812 209.753906 C 224.796875 211.0625 225.074219 212.277344 225.378906 213.671875 L 225.9375 214.234375 C 226.71875 214.386719 227.5 214.519531 228.285156 214.652344 C 230.066406 215.042969 231.414062 215.460938 232.871094 216.578125 C 234.566406 218.394531 235.339844 219.679688 236.019531 222.078125 C 236.128906 224.691406 235.703125 226.636719 234.515625 228.972656 C 233.058594 230.664062 231.851562 231.703125 229.855469 232.71875 C 227.6875 232.859375 227.6875 232.859375 225.9375 232.71875 L 225.9375 231.597656 L 228.003906 231.214844 C 229.808594 230.757812 230.515625 230.394531 232.027344 229.183594 C 233.210938 227.6875 233.898438 226.71875 234.339844 224.875 C 234.253906 222.558594 233.878906 221.140625 232.761719 219.101562 C 231.667969 217.628906 231.667969 217.628906 230.558594 216.859375 C 229.335938 216.488281 228.289062 216.375 227.023438 216.261719 L 224.816406 215.914062 C 223.765625 215.003906 223.765625 215.003906 223.132812 213.671875 L 222.679688 211.746094 C 222.136719 209.660156 222.136719 209.660156 220.511719 208.140625 C 218.472656 206.832031 217.097656 206.699219 214.734375 206.390625 C 213.972656 205.65625 213.230469 204.90625 212.492188 204.148438 C 211 203.960938 211 203.960938 209.691406 204.148438 C 210.355469 203.34375 210.355469 203.34375 211.371094 202.46875 C 212.875 202.085938 212.875 202.085938 214.171875 201.910156 L 214.171875 204.148438 L 216.414062 204.710938 C 217.078125 203.550781 217.078125 203.550781 217.113281 201.945312 C 217.09375 200.273438 217.09375 200.273438 216.378906 199.144531 L 215.292969 198.546875 C 211.832031 198.710938 209.40625 199.996094 206.4375 201.699219 C 205.59375 202.175781 204.75 202.652344 203.90625 203.121094 L 202.789062 203.761719 L 201.847656 204.148438 L 200.726562 203.589844 L 201.957031 202.894531 L 203.53125 201.980469 L 205.105469 201.074219 L 206.332031 200.230469 L 206.332031 199.109375 C 205.292969 197.917969 204.300781 197.199219 202.972656 196.308594 L 206.332031 195.1875 L 206.507812 196.273438 L 206.890625 197.429688 L 208.570312 197.988281 C 209.261719 196.78125 209.261719 196.78125 209.273438 194.910156 L 209.128906 192.945312 L 207.449219 191.824219 C 205.03125 192.003906 203.277344 192.679688 201.183594 193.875 L 199.578125 194.769531 L 197.929688 195.714844 C 191.363281 199.433594 191.363281 199.433594 188.402344 200.230469 L 187.671875 199.144531 L 186.722656 197.988281 L 185.042969 197.429688 C 185.027344 198.257812 185.019531 199.085938 185.011719 199.914062 L 184.992188 201.3125 L 185.042969 202.46875 L 185.605469 203.03125 C 187.917969 203.28125 189.433594 203.308594 191.589844 202.386719 C 192.570312 201.871094 193.546875 201.335938 194.507812 200.789062 L 195.6875 200.230469 L 196.808594 200.789062 L 194.007812 201.910156 C 195.449219 203.390625 196.761719 204.679688 198.488281 205.828125 L 195.6875 206.949219 L 194.566406 204.710938 L 192.886719 204.710938 C 192.503906 206.3125 192.503906 206.3125 192.328125 208.074219 L 193.445312 209.753906 C 196.726562 210.15625 199.390625 209.21875 202.410156 208.074219 L 202.535156 209.058594 C 202.894531 210.402344 202.894531 210.402344 204.089844 211.371094 L 205.457031 212.449219 C 206.847656 213.625 206.847656 213.625 208.011719 214.792969 C 208.429688 216.085938 208.808594 217.394531 209.128906 218.714844 C 210.160156 220.015625 211.046875 220.597656 212.492188 221.515625 C 214.199219 221.65625 214.199219 221.65625 215.851562 221.515625 C 217.460938 222.078125 217.460938 222.078125 218.65625 222.636719 L 218.65625 225.996094 L 217.535156 225.996094 L 217.535156 223.757812 L 216.464844 223.773438 C 214.289062 223.695312 212.535156 223.542969 210.621094 222.445312 C 209.066406 221.171875 207.777344 220.015625 206.960938 218.15625 C 206.726562 217.410156 206.496094 216.664062 206.269531 215.914062 C 205.425781 214.019531 204.039062 212.839844 202.441406 211.5625 C 201.257812 210.738281 201.257812 210.738281 199.503906 210.734375 C 197.578125 211.589844 196.515625 212.65625 195.125 214.234375 L 194.183594 215.003906 C 193.023438 216.4375 192.757812 218.070312 192.328125 219.832031 L 190.085938 219.832031 C 188.035156 218.15625 186.289062 216.171875 184.484375 214.234375 L 183.230469 212.921875 C 181.175781 210.707031 181.175781 210.707031 180.5625 209.753906 L 181.121094 208.074219 C 182.242188 207.703125 182.242188 207.703125 183.609375 207.476562 C 184.949219 207.265625 184.949219 207.265625 186.164062 206.949219 L 187.285156 205.828125 L 185.675781 204.851562 C 183.925781 203.589844 183.925781 203.589844 183.121094 202.539062 C 182.6875 200.902344 182.992188 199.617188 183.363281 197.988281 L 182.359375 198.210938 C 180.976562 198.449219 179.726562 198.589844 178.324219 198.546875 C 176.574219 197.496094 176.574219 197.496094 175.523438 195.75 C 175.417969 193.601562 175.839844 191.613281 176.390625 189.546875 C 176.738281 188.058594 176.675781 186.625 176.644531 185.105469 C 174.898438 184.523438 174.324219 184.585938 172.582031 184.894531 C 170.652344 185.128906 169.757812 185.058594 167.820312 184.507812 C 165.789062 183.300781 164.347656 182.117188 163.199219 180.066406 C 162.242188 177.566406 161.996094 175.570312 162.394531 172.921875 C 163.527344 170.355469 165.113281 169.015625 167.261719 167.285156 C 169.128906 166.480469 170.585938 166.382812 172.605469 166.460938 M 168.066406 168.402344 C 166.605469 169.386719 165.453125 170.3125 164.320312 171.660156 C 163.558594 173.941406 163.464844 175.996094 163.757812 178.382812 C 164.738281 180.339844 165.597656 181.4375 167.328125 182.761719 C 169.011719 183.519531 170.3125 183.839844 172.160156 183.984375 C 172.957031 183.894531 173.75 183.789062 174.542969 183.667969 L 176.644531 183.425781 L 177.761719 184.542969 L 177.585938 186.015625 L 177.761719 187.90625 C 178.929688 189.539062 180.269531 190.964844 181.683594 192.386719 L 180.5625 193.507812 L 179.441406 191.265625 L 177.203125 191.265625 C 176.726562 193.117188 176.726562 193.117188 176.644531 195.1875 C 177.386719 196.683594 177.386719 196.683594 178.882812 197.429688 C 182.183594 197.429688 184.933594 196.046875 187.84375 194.628906 L 186.722656 196.867188 C 187.675781 197.800781 187.675781 197.800781 188.96875 198.546875 C 191.617188 198.359375 193.636719 197.042969 195.863281 195.714844 L 196.957031 195.070312 C 197.84375 194.554688 198.726562 194.03125 199.609375 193.507812 L 199.609375 192.386719 C 198.699219 191.429688 197.765625 190.496094 196.808594 189.585938 L 197.929688 189.027344 L 199.609375 191.824219 C 200.714844 191.628906 200.714844 191.628906 201.847656 191.265625 C 202.515625 190.109375 202.515625 190.109375 202.550781 188.5 C 202.535156 186.832031 202.535156 186.832031 201.8125 185.734375 C 200.691406 184.988281 200.691406 184.988281 199.027344 184.890625 C 196.058594 185.175781 194.109375 186.386719 191.589844 187.90625 C 190.699219 188.433594 189.800781 188.957031 188.902344 189.480469 L 187.714844 190.191406 C 186.722656 190.707031 186.722656 190.707031 185.605469 190.707031 L 192.328125 186.785156 C 191.40625 185.839844 190.472656 184.90625 189.527344 183.984375 L 188.625 183.050781 C 187.652344 182.113281 186.761719 181.324219 185.605469 180.625 C 184.054688 180.398438 182.703125 180.515625 181.121094 180.625 L 179.441406 179.503906 C 179.359375 178.164062 179.359375 178.164062 179.476562 176.5625 C 179.539062 174.324219 179.492188 173.441406 178.464844 171.378906 C 176.902344 169.582031 176.902344 169.582031 174.964844 168.300781 C 172.445312 167.675781 170.527344 167.519531 168.066406 168.402344 M 205.210938 189.585938 L 205.210938 190.144531 L 208.011719 190.144531 L 208.011719 189.585938 Z M 209.128906 190.707031 L 210.8125 192.386719 L 210.253906 190.707031 Z M 210.8125 192.386719 L 211.371094 194.070312 Z M 210.8125 195.75 L 210.253906 197.988281 L 212.492188 196.867188 L 211.371094 196.867188 Z M 190.085938 204.148438 L 188.402344 205.269531 L 191.207031 205.828125 L 191.207031 204.148438 Z M 190.085938 205.828125 L 190.085938 208.632812 L 190.648438 208.632812 L 190.648438 205.828125 Z M 190.648438 208.632812 L 191.207031 209.753906 Z M 191.207031 209.753906 L 191.765625 211.433594 L 192.886719 210.871094 Z M 89.746094 188.921875 L 91.3125 188.921875 C 93.53125 188.933594 95.515625 188.972656 97.660156 189.585938 C 98.078125 191.371094 98.078125 191.371094 98.222656 193.507812 C 97.265625 194.816406 97.265625 194.816406 95.980469 196.308594 C 95.140625 197.492188 94.316406 198.683594 93.492188 199.878906 C 91.734375 202.441406 89.953125 204.988281 88.136719 207.511719 L 86.457031 206.949219 L 85.964844 207.964844 C 85.335938 209.191406 85.335938 209.191406 84.214844 210.871094 L 86.058594 210.8125 C 86.871094 210.796875 87.675781 210.78125 88.484375 210.769531 L 89.695312 210.722656 C 91.855469 210.695312 93.121094 210.847656 95.152344 211.71875 L 96.539062 212.550781 L 95.980469 214.792969 C 87.667969 216.707031 79.875 218.054688 71.332031 217.59375 L 71.332031 216.472656 L 70.210938 216.472656 C 70.90625 214.394531 72.035156 213.53125 73.574219 211.992188 L 74.09375 210.898438 C 74.800781 209.546875 75.585938 208.863281 76.757812 207.894531 C 81.425781 203.9375 85.488281 199.449219 89.257812 194.628906 L 88.226562 194.683594 C 85.015625 194.792969 82.394531 194.410156 79.355469 193.371094 C 78 192.929688 76.65625 192.644531 75.253906 192.386719 C 76.738281 191.566406 77.4375 191.265625 79.175781 191.265625 L 78.054688 190.144531 C 81.996094 189.207031 85.699219 188.867188 89.746094 188.921875 "/><path style=" stroke:none;fill-rule:nonzero;fill:#ffffff;fill-opacity:1;" d="M 230.441406 167.890625 C 232.128906 168.519531 233.363281 169.371094 234.664062 170.613281 C 235.828125 172.148438 236.28125 173.554688 236.566406 175.449219 C 236.578125 176.703125 236.578125 176.703125 236.019531 178.804688 C 234.722656 180.914062 233.628906 182.082031 231.539062 183.425781 C 229.320312 184.0625 227.460938 184.0625 225.199219 183.632812 L 223.695312 183.425781 L 222.648438 183.984375 L 222.015625 185.105469 L 222.050781 186.996094 C 222.015625 189.027344 222.015625 189.027344 221.070312 190.636719 C 219.773438 191.824219 219.773438 191.824219 218.566406 192.320312 C 216.890625 192.390625 216.324219 192.191406 214.863281 191.460938 C 214.101562 191.042969 213.347656 190.613281 212.597656 190.179688 L 211.421875 189.527344 C 210.46875 188.992188 209.515625 188.449219 208.570312 187.90625 L 208.570312 186.226562 C 209.371094 185.242188 209.371094 185.242188 210.425781 184.230469 L 211.46875 183.214844 C 212.492188 182.304688 212.492188 182.304688 214.171875 181.183594 L 218.65625 181.183594 L 220.335938 180.066406 C 220.453125 178.699219 220.453125 178.699219 220.300781 177.15625 C 220.257812 175.121094 220.253906 173.535156 221.175781 171.699219 C 222.640625 169.902344 223.746094 168.976562 225.855469 168.078125 C 227.492188 167.617188 228.777344 167.558594 230.441406 167.890625 M 225.832031 172.148438 L 224.816406 172.78125 C 224.15625 173.933594 224.15625 173.933594 224.082031 175.511719 C 224.117188 177.285156 224.117188 177.285156 225.167969 178.59375 C 226.464844 179.617188 226.464844 179.617188 228.175781 179.785156 C 229.882812 179.613281 229.882812 179.613281 231.222656 178.628906 C 231.511719 178.175781 231.800781 177.726562 232.097656 177.261719 C 232.191406 175.25 232.191406 175.25 231.539062 173.34375 C 230.589844 172.199219 230.589844 172.199219 229.296875 171.660156 C 227.183594 171.519531 227.183594 171.519531 225.832031 172.148438 M 178.324219 210.871094 C 180.050781 211.636719 181.171875 212.484375 182.460938 213.859375 L 183.492188 214.96875 L 184.554688 216.125 L 185.628906 217.265625 C 187.226562 218.992188 188.550781 220.476562 189.527344 222.636719 L 188.5 222.839844 L 187.144531 223.128906 L 185.804688 223.402344 C 184.480469 223.707031 184.480469 223.707031 183.332031 224.351562 C 181.683594 225.144531 180.117188 224.945312 178.324219 224.875 L 177.832031 223.789062 L 177.203125 222.636719 C 176.046875 221.96875 176.046875 221.96875 174.4375 221.933594 C 172.769531 221.953125 172.769531 221.953125 171.636719 222.671875 C 170.878906 223.835938 170.878906 223.835938 171.074219 225.714844 L 171.601562 227.675781 C 172.699219 228.699219 172.699219 228.699219 173.839844 229.359375 L 173.839844 230.476562 L 177.761719 230.476562 L 177.761719 232.71875 C 176.300781 233.449219 174.953125 233.457031 173.335938 233.441406 C 172.160156 233.277344 172.160156 233.277344 170.304688 232.261719 C 167.90625 230.3125 167.90625 230.3125 167.117188 229.359375 C 166.359375 227.078125 166.265625 225.019531 166.558594 222.636719 C 167.519531 220.71875 168.398438 219.597656 170.058594 218.261719 C 171.503906 217.636719 172.414062 217.476562 173.949219 217.347656 L 176.082031 217.035156 C 176.953125 216.140625 176.953125 216.140625 177.203125 214.792969 L 177.832031 212.691406 Z M 102.132812 167.691406 C 103.507812 167.777344 104.734375 167.933594 106.0625 168.300781 C 107.4375 169.496094 108.03125 170.132812 108.863281 171.660156 L 109.402344 172.652344 C 111.246094 176.964844 110.851562 182.179688 110.542969 186.785156 C 110.386719 187.722656 110.210938 188.660156 109.984375 189.585938 L 113.34375 189.585938 L 113.484375 187.382812 C 113.875 183.964844 115.023438 181.191406 116.921875 178.335938 C 118.449219 176.371094 118.449219 176.371094 119.507812 175.582031 C 121.082031 175.105469 121.082031 175.105469 122.867188 175.023438 C 124.585938 175.605469 124.585938 175.605469 126.296875 176.492188 L 128.015625 177.355469 C 129.707031 178.460938 130.707031 179.515625 131.828125 181.183594 C 132.144531 182.863281 132.144531 182.863281 131.828125 184.542969 C 130.707031 186.085938 130.707031 186.085938 129.027344 187.347656 C 127.882812 187.648438 127.882812 187.648438 126.683594 187.871094 L 124.546875 188.464844 C 123.695312 190 123.695312 190 123.425781 191.824219 L 122.65625 193.4375 L 122.308594 195.1875 C 122.726562 196.175781 122.726562 196.175781 123.359375 197.183594 C 124.511719 199.238281 124.765625 200.886719 124.828125 203.242188 C 124.707031 206.71875 124.023438 209.523438 122.308594 212.550781 C 120.8125 214.851562 119.183594 216.480469 116.773438 217.804688 C 114.058594 218.996094 111.550781 219.394531 108.613281 219.167969 C 106.039062 218.789062 104.089844 218.136719 101.964844 216.613281 C 99.359375 214.4375 97.304688 212.25 96.046875 209.050781 C 95.367188 206.703125 95.246094 204.648438 95.574219 202.226562 C 96.320312 199.59375 97.820312 197.433594 99.339844 195.1875 L 99.902344 194.070312 C 99.734375 193.121094 99.550781 192.179688 99.351562 191.238281 C 98.386719 186.726562 98.03125 182.328125 98.011719 177.71875 L 97.988281 176.054688 C 98 173.652344 98.128906 171.902344 99 169.636719 C 99.992188 168.160156 100.375 167.769531 102.132812 167.691406 M 101.019531 168.859375 C 99.886719 169.9375 99.886719 169.9375 99.339844 171.660156 C 98.644531 175.316406 98.835938 178.804688 99.234375 182.480469 L 99.386719 184.042969 C 99.671875 186.847656 100.105469 189.53125 100.742188 192.28125 C 101.03125 193.820312 101.03125 193.820312 101.019531 195.1875 C 100.148438 196.929688 98.953125 198.226562 97.660156 199.667969 C 96.617188 201.757812 96.460938 203.433594 96.574219 205.726562 C 96.917969 208.28125 97.628906 210.332031 98.976562 212.53125 C 101.085938 215.136719 103.816406 216.566406 106.867188 217.839844 C 109.527344 218.257812 111.839844 218.21875 114.464844 217.59375 C 117.164062 216.488281 119.03125 214.859375 120.839844 212.589844 C 122.453125 210.222656 123.304688 208.292969 123.566406 205.40625 C 123.703125 202.085938 123.703125 202.085938 122.90625 198.898438 C 122.496094 198.152344 122.082031 197.414062 121.65625 196.679688 C 121.1875 195.75 121.1875 195.75 121.1875 194.347656 C 121.863281 192.660156 122.65625 191.058594 123.519531 189.457031 C 124.070312 188.480469 124.070312 188.480469 123.988281 187.347656 L 125.03125 187.160156 L 126.402344 186.890625 L 127.761719 186.636719 C 129.054688 186.300781 129.054688 186.300781 130.011719 185.445312 C 130.835938 184.519531 130.835938 184.519531 131.058594 182.96875 C 130.863281 181.226562 130.863281 181.226562 129.964844 180.277344 C 127.804688 178.324219 125.648438 177 122.867188 176.140625 C 121.082031 176.042969 121.082031 176.042969 119.507812 176.703125 C 117.074219 178.917969 116.023438 182.039062 115.023438 185.105469 C 114.570312 186.96875 114.230469 188.816406 113.90625 190.707031 L 108.863281 190.707031 L 109.132812 189.351562 C 109.484375 186.929688 109.546875 184.570312 109.5625 182.128906 L 109.597656 180.765625 C 109.617188 177.515625 109.15625 174.613281 107.742188 171.660156 C 106.6875 170.324219 105.886719 169.777344 104.378906 168.859375 C 102.628906 168.390625 102.628906 168.390625 101.019531 168.859375 M 256.746094 181.746094 L 259.546875 182.304688 C 259.820312 191.28125 259.820312 191.28125 257.863281 195.1875 L 256.746094 195.1875 L 257.304688 185.664062 L 255.625 189.027344 L 254.503906 189.585938 L 253.945312 188.464844 C 253.214844 190.144531 252.496094 191.824219 251.773438 193.507812 L 251.15625 194.929688 C 249.933594 197.792969 249.011719 200.550781 248.34375 203.589844 L 247.222656 203.589844 L 246.664062 205.269531 L 245.890625 203.871094 L 244.984375 202.46875 L 243.859375 202.46875 C 243.644531 201.167969 243.457031 199.859375 243.300781 198.546875 L 243.859375 197.429688 L 242.882812 196.65625 C 241.324219 194.84375 240.664062 193.019531 239.847656 190.789062 C 239.484375 189.613281 239.484375 189.613281 238.820312 189.027344 C 237.714844 189.0625 237.714844 189.0625 236.578125 189.585938 C 232.523438 195.046875 230.855469 202.824219 228.738281 209.191406 L 227.617188 209.191406 L 227.058594 213.113281 L 225.9375 213.113281 C 225.554688 211.710938 225.554688 211.710938 225.378906 209.753906 C 225.8125 208.175781 226.410156 206.777344 227.058594 205.269531 L 228.175781 205.269531 L 228.445312 204.300781 C 232.003906 191.9375 232.003906 191.9375 235.457031 187.347656 C 236.929688 186.542969 236.929688 186.542969 238.261719 186.226562 L 239.941406 185.105469 C 240.742188 185.792969 240.742188 185.792969 241.621094 186.785156 C 242.011719 187.933594 242.011719 187.933594 242.25 189.203125 L 242.515625 190.539062 C 243.074219 193.699219 243.074219 193.699219 243.300781 195.1875 L 245.542969 195.75 L 246.664062 200.230469 L 247.421875 198.179688 L 248.445312 195.46875 L 248.945312 194.125 C 250.078125 191.144531 251.332031 188.144531 253.386719 185.664062 L 255.066406 185.105469 C 256.019531 183.425781 256.019531 183.425781 256.746094 181.746094 M 244.421875 200.230469 L 244.984375 201.351562 Z M 244.421875 200.230469 "/><path style=" stroke:none;fill-rule:nonzero;fill:#ffffff;fill-opacity:1;" d="M 174.398438 225.4375 C 179.765625 225.382812 185.132812 225.34375 190.5 225.320312 C 192.992188 225.308594 195.480469 225.292969 197.972656 225.265625 C 200.378906 225.242188 202.78125 225.226562 205.1875 225.222656 C 206.105469 225.21875 207.023438 225.210938 207.941406 225.199219 C 209.226562 225.183594 210.507812 225.179688 211.792969 225.179688 L 214.011719 225.164062 L 215.851562 225.4375 C 217.226562 226.570312 217.226562 226.570312 218.09375 227.675781 L 218.753906 226.566406 L 219.773438 225.4375 C 221.679688 225.136719 223.433594 225.335938 225.378906 225.4375 L 225.378906 235.519531 C 219.5625 235.589844 219.5625 235.589844 217.644531 235.203125 L 216.414062 234.960938 L 215.851562 235.519531 C 215.101562 235.566406 214.34375 235.582031 213.59375 235.574219 L 212.21875 235.566406 L 210.773438 235.554688 L 209.328125 235.546875 C 208.140625 235.539062 206.957031 235.53125 205.769531 235.519531 L 205.210938 234.398438 C 204.273438 234.566406 203.339844 234.757812 202.410156 234.960938 L 201.847656 235.519531 C 200.648438 235.566406 199.445312 235.582031 198.242188 235.574219 L 196.027344 235.566406 L 193.691406 235.554688 L 191.351562 235.546875 C 189.4375 235.539062 187.519531 235.53125 185.605469 235.519531 L 185.042969 229.917969 L 184.800781 232.402344 C 184.71875 233.257812 184.613281 234.109375 184.484375 234.960938 L 183.925781 235.519531 C 182.054688 235.597656 180.195312 235.542969 178.324219 235.519531 L 178.324219 229.359375 L 174.398438 229.359375 Z M 214.171875 225.996094 C 212.777344 225.9375 212.777344 225.9375 211.304688 226.136719 L 209.792969 226.285156 L 208.570312 226.554688 L 208.011719 227.675781 L 207.449219 226.554688 L 175.523438 226.554688 L 175.523438 228.796875 L 179.441406 228.796875 L 179.441406 234.398438 L 183.363281 234.398438 L 183.363281 228.796875 L 186.164062 228.796875 L 186.164062 234.398438 L 201.847656 234.398438 L 201.847656 233.277344 C 203.160156 233.445312 204.464844 233.632812 205.769531 233.835938 L 206.332031 234.398438 C 207.75 234.4375 209.148438 234.449219 210.566406 234.433594 L 211.773438 234.425781 C 212.761719 234.417969 213.746094 234.410156 214.734375 234.398438 L 215.292969 232.15625 L 216.976562 234.398438 C 218.085938 233.914062 218.085938 233.914062 219.214844 233.277344 L 219.773438 232.15625 L 220.335938 234.398438 L 224.257812 234.398438 L 224.257812 225.996094 C 222.664062 226.078125 221.304688 226.15625 219.773438 226.554688 C 218.105469 227.898438 218.105469 227.898438 216.976562 229.359375 L 216.519531 228.308594 C 215.878906 226.949219 215.878906 226.949219 214.171875 225.996094 M 237.703125 200.230469 C 239.074219 201.601562 239.660156 202.953125 240.5 204.710938 L 240.984375 205.714844 C 241.496094 206.78125 241.996094 207.847656 242.496094 208.914062 L 243.011719 209.996094 C 244.007812 212.117188 244.847656 214.234375 245.542969 216.472656 L 246.664062 215.914062 L 246.664062 217.035156 L 249.460938 214.234375 C 251.738281 211.761719 252.488281 208.441406 253.207031 205.234375 L 253.386719 204.148438 L 253.945312 204.148438 C 254.390625 206.003906 254.609375 207.304688 254.503906 209.191406 C 253.46875 212.464844 252.238281 215.707031 250.035156 218.378906 L 248.902344 219.273438 C 246.875 219.449219 246.875 219.449219 244.984375 219.273438 L 243.859375 218.714844 C 243.472656 217.699219 243.125 216.671875 242.8125 215.632812 C 241.644531 211.980469 240.394531 208.476562 238.261719 205.269531 C 238.085938 205.714844 237.90625 206.164062 237.726562 206.621094 C 236.457031 209.753906 235.25 212.644531 233.21875 215.355469 L 231.539062 214.234375 L 232.339844 212.714844 C 234.1875 209.140625 235.84375 205.714844 236.855469 201.792969 C 237.136719 200.789062 237.136719 200.789062 237.703125 200.230469 "/><path style=" stroke:none;fill-rule:nonzero;fill:#ff3131;fill-opacity:1;" d="M 276.910156 191.265625 C 278.277344 192.457031 278.277344 192.457031 279.152344 193.507812 L 277.46875 194.070312 L 276.910156 192.945312 C 275.613281 192.535156 274.308594 192.164062 272.992188 191.824219 L 272.992188 192.945312 L 271.027344 193.050781 C 268.34375 193.347656 265.835938 194.050781 263.253906 194.835938 L 262.066406 195.191406 C 260.574219 195.667969 259.207031 196.167969 257.886719 197.015625 C 257.183594 198.039062 257.183594 198.039062 257.121094 199.644531 L 257.164062 201.558594 C 257.175781 202.1875 257.179688 202.816406 257.191406 203.464844 C 257.292969 205.058594 257.542969 206.511719 257.863281 208.074219 C 257.644531 209.351562 257.328125 210.269531 256.746094 211.433594 C 254.574219 208.769531 254.574219 208.769531 253.945312 207.511719 C 253.613281 203.382812 253.886719 200.070312 255.625 196.308594 L 256.746094 196.308594 L 257.9375 195.046875 C 260.363281 192.726562 263.046875 191.46875 266.269531 190.566406 C 269.945312 189.757812 273.359375 189.902344 276.910156 191.265625 "/><path style=" stroke:none;fill-rule:nonzero;fill:#ffffff;fill-opacity:1;" d="M 261.507812 195.082031 L 262.90625 195.1875 C 264.417969 196.699219 264.585938 198.1875 265.148438 200.230469 L 266.269531 202.46875 L 261.226562 206.949219 C 258.988281 205.828125 258.988281 205.828125 257.726562 204.359375 C 256.855469 202.683594 256.558594 201.957031 256.464844 200.160156 L 256.746094 197.988281 C 258.117188 196.207031 259.238281 195.25 261.507812 195.082031 M 289.726562 194.59375 L 290.890625 194.601562 C 291.832031 194.605469 292.777344 194.617188 293.71875 194.628906 L 293.71875 196.308594 L 294.625 197.359375 L 295.398438 198.546875 C 295.21875 199.914062 295.21875 199.914062 294.277344 201.351562 C 292.875 202.472656 291.441406 203.421875 289.792969 204.148438 L 287.554688 204.148438 C 287.859375 202.257812 288.144531 201.304688 289.234375 199.667969 L 289.234375 197.988281 C 286.964844 198.253906 285.050781 198.480469 283.074219 199.667969 L 281.953125 198.546875 C 281.882812 196.796875 281.882812 196.796875 281.953125 195.1875 C 284.558594 194.671875 287.078125 194.558594 289.726562 194.59375 M 290.914062 197.429688 L 290.914062 201.351562 C 292.035156 200.90625 292.035156 200.90625 293.15625 200.230469 L 293.71875 198.546875 L 292.59375 197.429688 Z M 274.671875 199.109375 L 275.230469 199.109375 C 275.460938 200.84375 275.339844 202.1875 274.707031 203.824219 C 273.316406 206.695312 271.789062 209.089844 269.628906 211.433594 L 264.027344 209.191406 L 265.710938 206.949219 L 267.390625 206.949219 L 267.753906 206.015625 C 268.757812 204.277344 270.136719 203.082031 271.621094 201.769531 L 272.484375 200.992188 C 273.203125 200.351562 273.929688 199.722656 274.671875 199.109375 M 267.390625 206.949219 L 267.949219 208.074219 Z M 172.511719 171.730469 L 174.398438 172.21875 C 175.523438 173.902344 175.523438 173.902344 175.695312 175.582031 C 175.523438 177.261719 175.523438 177.261719 174.890625 178.277344 C 173.839844 178.941406 173.839844 178.941406 172.230469 179.503906 L 170.480469 179.503906 C 168.835938 178.347656 168.835938 178.347656 167.679688 176.703125 C 167.644531 174.953125 167.644531 174.953125 168.242188 173.34375 C 169.648438 171.664062 170.300781 171.65625 172.511719 171.730469 M 271.027344 192.5625 C 272.429688 192.945312 272.429688 192.945312 274.109375 194.070312 C 274.007812 195.039062 274.007812 195.039062 273.550781 196.308594 C 272.269531 197.507812 272.269531 197.507812 270.714844 198.6875 L 269.152344 199.886719 L 267.949219 200.789062 L 265.710938 199.667969 C 265.601562 198.105469 265.515625 196.734375 265.710938 195.1875 C 266.722656 193.824219 266.722656 193.824219 267.949219 192.945312 C 269.628906 192.386719 269.628906 192.386719 271.027344 192.5625 M 227.40625 219.90625 L 229.296875 220.394531 C 230.417969 222.078125 230.417969 222.078125 230.625 223.722656 C 230.417969 225.4375 230.417969 225.4375 229.4375 226.765625 L 228.175781 227.675781 L 225.9375 227.675781 L 225.9375 224.875 L 222.574219 224.875 C 222.714844 223.300781 222.714844 223.300781 223.132812 221.515625 C 224.539062 219.839844 225.199219 219.832031 227.40625 219.90625 "/><path style=" stroke:none;fill-rule:nonzero;fill:#ff3131;fill-opacity:1;" d="M 268.507812 190.144531 C 271.554688 190.039062 274.019531 190.15625 276.910156 191.265625 C 278.277344 192.457031 278.277344 192.457031 279.152344 193.507812 L 277.46875 194.070312 L 276.910156 192.945312 C 275.613281 192.535156 274.308594 192.164062 272.992188 191.824219 L 272.992188 192.945312 L 267.390625 192.945312 L 266.828125 191.824219 L 267.949219 191.824219 Z M 268.507812 190.144531 "/><path style=" stroke:none;fill-rule:nonzero;fill:#ff3131;fill-opacity:1;" d="M 267.949219 190.707031 L 267.949219 192.945312 C 266.175781 194.128906 264.859375 194.488281 262.800781 194.976562 C 262.191406 195.121094 261.585938 195.269531 260.957031 195.421875 C 260.492188 195.527344 260.023438 195.636719 259.546875 195.75 C 259.933594 194.425781 259.933594 194.425781 260.667969 192.945312 C 261.941406 192.183594 261.941406 192.183594 263.433594 191.652344 L 264.917969 191.097656 C 266.269531 190.707031 266.269531 190.707031 267.949219 190.707031 "/><path style=" stroke:none;fill-rule:nonzero;fill:#ffffff;fill-opacity:1;" d="M 190.648438 228.796875 L 199.609375 228.796875 L 198.488281 232.15625 L 190.648438 232.15625 L 190.648438 231.039062 L 194.566406 231.039062 L 194.566406 229.917969 L 190.648438 229.917969 Z M 195.6875 229.359375 L 195.6875 231.597656 L 197.929688 231.039062 L 197.929688 229.359375 Z M 195.6875 229.359375 "/><path style=" stroke:none;fill-rule:nonzero;fill:#ff3131;fill-opacity:1;" d="M 277.46875 206.390625 L 278.589844 206.949219 C 278.117188 208.492188 277.617188 209.984375 276.910156 211.433594 C 275.6875 212.273438 275.6875 212.273438 274.671875 212.550781 L 273.550781 211.433594 C 275.871094 207.832031 275.871094 207.832031 277.46875 206.390625 M 280.832031 195.1875 L 281.953125 195.75 L 280.273438 201.351562 C 278.382812 198.828125 278.382812 198.828125 278.03125 196.867188 C 279.359375 195.992188 279.359375 195.992188 280.832031 195.1875 "/><path style=" stroke:none;fill-rule:nonzero;fill:#ff3131;fill-opacity:1;" d="M 281.394531 196.867188 L 282.511719 198.546875 C 282.445312 200.546875 282.445312 200.546875 281.953125 202.46875 C 280.796875 203.277344 280.796875 203.277344 279.714844 203.589844 L 279.152344 201.351562 L 280.273438 201.351562 L 280.273438 198.546875 L 281.394531 198.546875 Z M 267.949219 200.230469 C 267.949219 201.910156 267.949219 201.910156 267.390625 203.03125 L 269.070312 204.148438 L 266.828125 205.828125 L 266.269531 204.148438 L 265.148438 203.03125 Z M 267.949219 200.230469 "/><path style=" stroke:none;fill-rule:nonzero;fill:#ffffff;fill-opacity:1;" d="M 208.570312 228.796875 L 210.8125 228.796875 L 210.8125 233.277344 C 209.605469 231.808594 208.90625 230.675781 208.570312 228.796875 "/><path style=" stroke:none;fill-rule:nonzero;fill:#ff3131;fill-opacity:1;" d="M 268.507812 190.144531 L 272.992188 190.144531 L 272.992188 190.707031 L 271.378906 190.882812 L 269.628906 191.265625 L 268.507812 192.945312 L 266.828125 192.386719 L 267.949219 191.824219 Z M 268.507812 190.144531 "/><path style=" stroke:none;fill-rule:nonzero;fill:#ffffff;fill-opacity:1;" d="M 203.53125 228.796875 L 204.652344 228.796875 L 205.210938 231.597656 L 202.410156 231.597656 Z M 203.53125 228.796875 "/><path style=" stroke:none;fill-rule:nonzero;fill:#ff3131;fill-opacity:1;" d="M 265.148438 203.589844 L 266.828125 204.148438 L 266.269531 206.390625 L 264.027344 205.828125 Z M 259.546875 193.507812 L 260.667969 194.070312 L 257.863281 196.867188 L 256.746094 196.308594 Z M 259.546875 193.507812 "/><path style=" stroke:none;fill-rule:nonzero;fill:#ffffff;fill-opacity:1;" d="M 182.804688 203.03125 L 186.164062 205.269531 L 185.605469 206.390625 L 183.925781 206.390625 Z M 206.332031 205.269531 L 207.449219 205.828125 C 204.496094 207.636719 204.496094 207.636719 203.53125 208.074219 L 202.410156 207.511719 C 205.363281 205.707031 205.363281 205.707031 206.332031 205.269531 "/><path style=" stroke:none;fill-rule:nonzero;fill:#ff3131;fill-opacity:1;" d="M 280.273438 200.230469 L 281.394531 202.46875 L 279.714844 203.589844 L 279.152344 201.351562 L 280.273438 201.351562 Z M 260.667969 192.945312 L 263.464844 192.945312 L 263.464844 194.070312 L 261.226562 194.628906 Z M 275.789062 191.824219 L 278.589844 192.386719 L 278.589844 194.070312 L 277.46875 194.070312 C 276.5625 192.945312 276.5625 192.945312 275.789062 191.824219 "/><path style=" stroke:none;fill-rule:nonzero;fill:#ff3131;fill-opacity:1;" d="M 274.109375 190.707031 L 276.910156 191.265625 L 275.230469 192.386719 L 274.109375 191.824219 Z M 274.109375 190.707031 "/><path style=" stroke:none;fill-rule:nonzero;fill:#ffffff;fill-opacity:1;" d="M 200.726562 197.429688 L 201.847656 197.988281 L 199.046875 199.109375 Z M 293.71875 195.1875 L 295.398438 195.75 Z M 207.449219 204.710938 L 208.570312 205.269531 Z M 198.488281 204.710938 L 199.609375 205.269531 Z M 208.570312 204.148438 L 209.691406 204.710938 Z M 199.609375 204.148438 L 200.726562 204.710938 Z M 196.808594 199.667969 L 197.929688 200.230469 Z M 197.929688 199.109375 L 199.046875 199.667969 Z M 201.847656 196.867188 L 202.972656 197.429688 Z M 190.648438 192.386719 L 191.765625 192.945312 Z M 191.765625 191.824219 L 192.886719 192.386719 Z M 182.804688 191.824219 L 183.925781 192.386719 Z M 183.925781 191.265625 L 185.042969 191.824219 Z M 193.445312 190.707031 L 194.566406 191.265625 Z M 194.566406 190.144531 L 195.6875 190.707031 Z M 194.566406 190.144531 "/></g></svg>